<?xml version="1.0" encoding="utf-8"?>
<!-- Generator: Adobe Illustrator 23.1.0, SVG Export Plug-In . SVG Version: 6.00 Build 0)  -->
<svg version="1.1" id="Capa_1" xmlns="http://www.w3.org/2000/svg" xmlns:xlink="http://www.w3.org/1999/xlink" x="0px" y="0px"
	 viewBox="0 0 41 41" style="enable-background:new 0 0 41 41;" xml:space="preserve">
<style type="text/css">
	.st0{fill:#FFFFFF;}
</style>
<g>
	<path class="st0" d="M20.6,0.5c-11.1,0-20.1,9-20.1,20.1c0,11.1,9,20.1,20.1,20.1c11.1,0,20.1-9,20.1-20.1
		C40.7,9.5,31.7,0.5,20.6,0.5L20.6,0.5z M29.2,26L26,29.2c0,0-5.1-5.4-5.4-5.4c-0.4,0-5.4,5.4-5.4,5.4L12,26c0,0,5.4-5,5.4-5.4
		c0-0.5-5.4-5.4-5.4-5.4l3.2-3.2c0,0,5.1,5.4,5.4,5.4c0.3,0,5.4-5.4,5.4-5.4l3.2,3.2c0,0-5.4,5.1-5.4,5.4C23.8,21,29.2,26,29.2,26
		L29.2,26z M29.2,26"/>
</g>
</svg>
