<?xml version="1.0" encoding="utf-8"?>
<!-- Generator: Adobe Illustrator 19.2.1, SVG Export Plug-In . SVG Version: 6.00 Build 0)  -->
<svg version="1.1" id="Capa_1" focusable="false" xmlns="http://www.w3.org/2000/svg" xmlns:xlink="http://www.w3.org/1999/xlink"
	 x="0px" y="0px" viewBox="0 0 18 18" style="enable-background:new 0 0 18 18;" xml:space="preserve">
<style type="text/css">
	.st0{fill:#FFFFFF;}
</style>
<g>
	<path d="M16.6,12.2l0-3.8c0-1-0.9-1.9-1.9-1.9c-0.3,0-0.5,0.1-0.7,0.1c-0.2-0.8-1-1.4-1.8-1.4c-0.2,0.1-0.5,0.1-0.7,0.1
		c-0.2-0.8-1-1.4-1.8-1.4C9.4,3.9,9.2,4,9,4.1L9,2C9,1,8.1,0.1,7,0.1c-0.4,0-1,0.2-1.3,0.6C5.3,1,5.1,1.6,5.1,2l0,7.7
		C4.7,9.2,4.2,9,3.6,9c-1.3,0-2,1.1-2.2,1.6c0,0.1,0,0.3,0.1,0.5l2.4,4c0.2,0.4,0.5,0.8,0.8,1.1c1,1,2.6,1.7,4.1,1.7l2.2,0
		c1.5,0,2.9-0.6,4.1-1.7S16.6,13.7,16.6,12.2z"/>
	<path class="st0" d="M10.9,16.6l-2.1,0.1c-1.6,0-3-0.8-3.8-2.2l-2.2-3.7c0.1-0.2,0.4-0.5,0.8-0.5c0.6,0,1.4,1.1,1.7,1.5
		c0.1,0.3,0.4,0.4,0.7,0.3c0.2-0.1,0.5-0.4,0.5-0.7l0-9.4C6.4,1.6,6.7,1.3,7,1.4c0.3,0,0.6,0.3,0.7,0.7l0,7.5c0,0.3,0.3,0.6,0.7,0.7
		C8.7,10.3,9,10,9,9.6L9,5.8c0-0.3,0.3-0.6,0.7-0.7c0.3,0,0.6,0.3,0.7,0.7l0,3.8c0,0.1,0.1,0.4,0.1,0.4c0.1,0.1,0.3,0.1,0.4,0.1
		c0.3,0,0.6-0.3,0.7-0.7l0-2.5l0,0c0-0.3,0.3-0.6,0.6-0.6c0.3,0,0.6,0.3,0.7,0.7l0,2.5c0,0.1,0.1,0.4,0.1,0.4
		c0.1,0.1,0.3,0.1,0.4,0.1c0.3,0,0.6-0.3,0.7-0.7l0-1.2l0,0C14,8.3,14.1,8,14.2,8c0.1-0.1,0.3-0.1,0.4-0.1c0.3,0,0.6,0.3,0.7,0.7
		l0,3.8c0,1.2-0.4,2.4-1.3,3.2C13.2,16.3,12.1,16.7,10.9,16.6z"/>
</g>
</svg>
