<?xml version="1.0" encoding="utf-8"?>
<!-- Generator: Adobe Illustrator 19.2.1, SVG Export Plug-In . SVG Version: 6.00 Build 0)  -->
<svg version="1.1" id="Capa_1" xmlns="http://www.w3.org/2000/svg" xmlns:xlink="http://www.w3.org/1999/xlink" x="0px" y="0px"
	 viewBox="0 0 25 25" style="enable-background:new 0 0 25 25;" xml:space="preserve">
<style type="text/css">
	.st0{fill:#CCCCCC;}
</style>
<g>
	<path class="st0" d="M12.5,0.3C6.6,0.3,1.8,5.1,1.8,11c0,4,2.2,7.5,5.5,9.4l-0.1,4.4l5-3.1c0.1,0,0.2,0,0.2,0
		c5.9,0,10.7-4.8,10.7-10.7C23.2,5.1,18.4,0.3,12.5,0.3z M13.9,5l-0.4,8.2h-2.1L11.1,5H13.9z M12.5,17.4c-1,0-1.6-0.7-1.6-1.6
		c0-1,0.7-1.6,1.6-1.6c1,0,1.6,0.7,1.6,1.6C14.1,16.7,13.5,17.4,12.5,17.4z"/>
</g>
</svg>
