<?xml version="1.0" encoding="utf-8"?>
<!-- Generator: Adobe Illustrator 19.2.1, SVG Export Plug-In . SVG Version: 6.00 Build 0)  -->
<svg version="1.1" id="Capa_1" xmlns="http://www.w3.org/2000/svg" xmlns:xlink="http://www.w3.org/1999/xlink" x="0px" y="0px"
	 viewBox="0 0 30 30" style="enable-background:new 0 0 30 30;" xml:space="preserve">
<style type="text/css">
	.st0{fill:#999999;stroke:#999999;stroke-miterlimit:10;}
</style>
<g>
	<rect x="14.4" y="23.1" class="st0" width="1.2" height="6.1"/>
	<rect x="14.4" y="0.8" class="st0" width="1.2" height="6.3"/>
	<rect x="6.3" y="24" transform="matrix(0.5098 -0.8603 0.8603 0.5098 -16.5925 20.0689)" class="st0" width="6.1" height="1.2"/>
	<rect x="17.5" y="5" transform="matrix(0.5097 -0.8603 0.8603 0.5097 5.3315 20.4355)" class="st0" width="6.3" height="1.2"/>
	<rect x="2.4" y="20.1" transform="matrix(0.8641 -0.5033 0.5033 0.8641 -9.656 5.5376)" class="st0" width="6.1" height="1.2"/>
	<rect x="21.4" y="8.9" transform="matrix(0.8641 -0.5033 0.5033 0.8641 -1.4228 13.6084)" class="st0" width="6.3" height="1.2"/>
	<rect x="0.8" y="14.4" class="st0" width="6.1" height="1.2"/>
	<rect x="22.8" y="14.4" class="st0" width="6.3" height="1.2"/>
	<rect x="4.8" y="6.3" transform="matrix(0.5 -0.866 0.866 0.5 -5.4259 9.3278)" class="st0" width="1.2" height="6.1"/>
	<rect x="24" y="17.3" transform="matrix(0.5 -0.866 0.866 0.5 -5.4493 31.4895)" class="st0" width="1.2" height="6.3"/>
	<rect x="20" y="21.6" transform="matrix(0.8645 -0.5027 0.5027 0.8645 -9.5887 13.673)" class="st0" width="1.2" height="6.1"/>
	<rect x="8.9" y="2.2" transform="matrix(0.8645 -0.5027 0.5027 0.8645 -1.4193 5.4925)" class="st0" width="1.2" height="6.3"/>
</g>
</svg>
