<?xml version="1.0" encoding="utf-8"?>
<!-- Generator: Adobe Illustrator 23.1.0, SVG Export Plug-In . SVG Version: 6.00 Build 0)  -->
<svg version="1.1" id="Capa_1" xmlns="http://www.w3.org/2000/svg" xmlns:xlink="http://www.w3.org/1999/xlink" x="0px" y="0px"
	 viewBox="0 0 25 25" style="enable-background:new 0 0 25 25;" xml:space="preserve">
<style type="text/css">
	.st0{fill:#FFFFFF;}
</style>
<path class="st0" d="M21.4,17.1L21.4,17.1V3.8l0,0l0,0l0,0l0,0l-13,1.7l0,0V16c-0.5-0.2-1.1-0.2-1.7-0.2c-1.9,0.2-3.3,1.5-3.2,3
	s1.8,2.5,3.7,2.4c1.9-0.2,3.3-1.5,3.2-3c0,0,0,0,0-0.1l0,0V9l9-1.3V15c-0.5-0.2-1.1-0.2-1.7-0.2c-1.9,0.2-3.3,1.5-3.2,3
	s1.8,2.5,3.7,2.4C20.2,20,21.6,18.7,21.4,17.1C21.4,17.2,21.4,17.1,21.4,17.1z"/>
</svg>
