<?xml version="1.0" encoding="utf-8"?>
<!-- Generator: Adobe Illustrator 19.2.1, SVG Export Plug-In . SVG Version: 6.00 Build 0)  -->
<svg version="1.1" id="Capa_1" xmlns="http://www.w3.org/2000/svg" xmlns:xlink="http://www.w3.org/1999/xlink" x="0px" y="0px"
	 viewBox="0 0 25 25" style="enable-background:new 0 0 25 25;" xml:space="preserve">
<style type="text/css">
	.st0{fill:#CCCCCC;}
</style>
<g id="XMLID_53_">
	<g>
		<g id="XMLID_16_">
			<path id="XMLID_17_" class="st0" d="M3.6,14.1c0,2.4,0.9,4.6,2.6,6.3s3.9,2.6,6.3,2.6c2.4,0,4.6-0.9,6.3-2.6
				c1.7-1.7,2.6-3.9,2.6-6.3v-0.8l-1.7,0v0.8c0,4-3.3,7.3-7.3,7.3s-7.3-3.3-7.3-7.3c0-4,3.3-7.3,7.3-7.3h1.3L11.8,9l1.2,1.2L17,6
				l-4.1-4.1l-1.2,1.2l2.1,2.1h-1.3c-2.4,0-4.6,0.9-6.3,2.6C4.5,9.5,3.6,11.8,3.6,14.1z"/>
		</g>
	</g>
</g>
</svg>
