<?xml version="1.0" encoding="utf-8"?>
<!-- Generator: Adobe Illustrator 23.1.0, SVG Export Plug-In . SVG Version: 6.00 Build 0)  -->
<svg version="1.1" id="Capa_1" xmlns="http://www.w3.org/2000/svg" xmlns:xlink="http://www.w3.org/1999/xlink" x="0px" y="0px"
	 viewBox="0 0 13 13" style="enable-background:new 0 0 13 13;" xml:space="preserve">
<style type="text/css">
	.st0{fill:#FFFFFF;}
</style>
<path class="st0" d="M6.5,0C2.9,0,0,2.9,0,6.5C0,10.1,2.9,13,6.5,13S13,10.1,13,6.5C13,2.9,10.1,0,6.5,0z M9.9,6.3l-1.2,1l0.4,1.5
	c0.2,0.7-0.6,1.3-1.3,0.9L6.5,9L5.2,9.8c-0.6,0.4-1.4-0.2-1.3-0.9l0.4-1.5l-1.2-1C2.5,5.8,2.8,4.9,3.5,4.8l1.6-0.1l0.6-1.5
	C6,2.6,7,2.6,7.3,3.2l0.6,1.5l1.6,0.1C10.2,4.9,10.5,5.8,9.9,6.3z"/>
</svg>
