<?xml version="1.0" encoding="utf-8"?>
<!-- Generator: Adobe Illustrator 19.2.1, SVG Export Plug-In . SVG Version: 6.00 Build 0)  -->
<svg version="1.1" id="Capa_1" xmlns="http://www.w3.org/2000/svg" xmlns:xlink="http://www.w3.org/1999/xlink" x="0px" y="0px"
	 viewBox="0 0 25 25" style="enable-background:new 0 0 25 25;" xml:space="preserve">
<style type="text/css">
	.st0{fill:#F9C500;}
</style>
<path id="XMLID_94_" class="st0" d="M12.5,1.8C6.6,1.8,1.8,6.6,1.8,12.5s4.8,10.7,10.7,10.7s10.7-4.8,10.7-10.7S18.4,1.8,12.5,1.8z
	 M18.1,12.2l-2,1.7l0.6,2.5c0.3,1.2-1,2.2-2.1,1.5l-2.2-1.3l-2.2,1.3c-1.1,0.6-2.4-0.3-2.1-1.5l0.6-2.5l-2-1.7
	c-0.9-0.8-0.4-2.4,0.8-2.4l2.6-0.2l1-2.4c0.5-1.1,2.1-1.1,2.6,0l1,2.4l2.6,0.2C18.6,9.8,19.1,11.4,18.1,12.2z"/>
</svg>
