<?xml version="1.0" encoding="utf-8"?>
<!-- Generator: Adobe Illustrator 19.2.1, SVG Export Plug-In . SVG Version: 6.00 Build 0)  -->
<svg version="1.1" id="Capa_1" xmlns="http://www.w3.org/2000/svg" xmlns:xlink="http://www.w3.org/1999/xlink" x="0px" y="0px"
	 viewBox="0 0 10 20" style="enable-background:new 0 0 10 20;" xml:space="preserve">
<style type="text/css">
	.st0{fill:#404E67;}
</style>
<g>
	<path class="st0" d="M6.2,2.9c0,0.6-0.5,1-1,1c-0.6,0-1-0.5-1-1c0-0.6,0.5-1,1-1C5.7,1.9,6.2,2.4,6.2,2.9z"/>
	<path class="st0" d="M6.2,7.8c0,0.6-0.5,1-1,1c-0.6,0-1-0.5-1-1c0-0.6,0.5-1,1-1C5.7,6.7,6.2,7.2,6.2,7.8z"/>
	<circle class="st0" cx="5.2" cy="12.6" r="1"/>
	<circle class="st0" cx="5.2" cy="17.4" r="1"/>
</g>
</svg>
